HIERARCHY
ROOT reference
{
  OFFSET 0 0 0
  CHANNELS 6 Xposition Yposition Zposition Zrotation Xrotation Yrotation
  JOINT Hips
  {
    OFFSET 346.547 88.4868 223.89
    CHANNELS 3 Zrotation Xrotation Yrotation
    JOINT RightUpLeg
    {
      OFFSET -9.27468 -1.51611 -0.00175448
      CHANNELS 3 Zrotation Xrotation Yrotation
      JOINT RightLeg
      {
        OFFSET -0.00464511 -41.8738 0.0184652
        CHANNELS 3 Zrotation Xrotation Yrotation
        JOINT RightFoot
        {
          OFFSET -0.626239 -42.3044 -0.171503
          CHANNELS 3 Zrotation Xrotation Yrotation
          End Site
          {
            OFFSET 0 -7.69 17.5
          }
        }
      }
    }
    JOINT LeftUpLeg
    {
      OFFSET 9.30083 -1.68454 -0.0454748
      CHANNELS 3 Zrotation Xrotation Yrotation
      JOINT LeftLeg
      {
        OFFSET 0.0692631 -41.8513 -0.097029
        CHANNELS 3 Zrotation Xrotation Yrotation
        JOINT LeftFoot
        {
          OFFSET 0.520945 -41.523 0.446349
          CHANNELS 3 Zrotation Xrotation Yrotation
          End Site
          {
            OFFSET 0 -7.69 17.5
          }
        }
      }
    }
    JOINT Spine
    {
      OFFSET 0.0770133 14.2992 0.0590021
      CHANNELS 3 Zrotation Xrotation Yrotation
      JOINT Spine1
      {
        OFFSET 0.0471461 9.71665 0.020973
        CHANNELS 3 Zrotation Xrotation Yrotation
        JOINT Spine2
        {
          OFFSET 0.051283 10.117 0.000913966
          CHANNELS 3 Zrotation Xrotation Yrotation
          JOINT Spine3
          {
            OFFSET 0.0447963 9.71088 0.00221408
            CHANNELS 3 Zrotation Xrotation Yrotation
            JOINT Neck
            {
              OFFSET 0.115655 10.3749 0.0448519
              CHANNELS 3 Zrotation Xrotation Yrotation
              JOINT Head
              {
                OFFSET 0.0937003 9.47807 0.0215077
                CHANNELS 3 Zrotation Xrotation Yrotation
                End Site
                {
                  OFFSET 0 15.95 0
                }
              }
            }
            JOINT RightShoulder
            {
              OFFSET -3.17023 6.91072 -0.0050072
              CHANNELS 3 Zrotation Xrotation Yrotation
              JOINT RightArm
              {
                OFFSET -12.7573 0.00694711 0.0313031
                CHANNELS 3 Zrotation Xrotation Yrotation
                JOINT RightForeArm
                {
                  OFFSET -26.5152 -0.0619338 -0.0331286
                  CHANNELS 3 Zrotation Xrotation Yrotation
                  JOINT RightHand
                  {
                    OFFSET -25.9971 0.0398378 -0.0269922
                    CHANNELS 3 Zrotation Xrotation Yrotation
                    JOINT RightHandThumb1
                    {
                      OFFSET -2.48905 0.190105 3.12053
                      CHANNELS 3 Zrotation Xrotation Yrotation
                      JOINT RightHandThumb2
                      {
                        OFFSET -3.68274 0 0
                        CHANNELS 3 Zrotation Xrotation Yrotation
                        JOINT RightHandThumb3
                        {
                          OFFSET -2.55832 0 0
                          CHANNELS 3 Zrotation Xrotation Yrotation
                          End Site
                          {
                            OFFSET -2.194 0 0
                          }
                        }
                      }
                    }
                    JOINT RightInHandIndex
                    {
                      OFFSET -3.22368 0.508421 1.97842
                      CHANNELS 3 Zrotation Xrotation Yrotation
                      JOINT RightHandIndex1
                      {
                        OFFSET -5.21684 -0.091368 0.999158
                        CHANNELS 3 Zrotation Xrotation Yrotation
                        JOINT RightHandIndex2
                        {
                          OFFSET -3.61937 0 0
                          CHANNELS 3 Zrotation Xrotation Yrotation
                          JOINT RightHandIndex3
                          {
                            OFFSET -2.0521 0 0
                            CHANNELS 3 Zrotation Xrotation Yrotation
                            End Site
                            {
                              OFFSET -1.805 0 0
                            }
                          }
                        }
                      }
                    }
                    JOINT RightInHandMiddle
                    {
                      OFFSET -3.38211 0.517263 0.756737
                      CHANNELS 3 Zrotation Xrotation Yrotation
                      JOINT RightHandMiddle1
                      {
                        OFFSET -5.17411 -0.084 0.313895
                        CHANNELS 3 Zrotation Xrotation Yrotation
                        JOINT RightHandMiddle2
                        {
                          OFFSET -3.94947 0 0
                          CHANNELS 3 Zrotation Xrotation Yrotation
                          JOINT RightHandMiddle3
                          {
                            OFFSET -2.47579 0 0
                            CHANNELS 3 Zrotation Xrotation Yrotation
                            End Site
                            {
                              OFFSET -1.975 0 0
                            }
                          }
                        }
                      }
                    }
                    JOINT RightInHandRing
                    {
                      OFFSET -3.36516 0.537895 -0.128947
                      CHANNELS 3 Zrotation Xrotation Yrotation
                      JOINT RightHandRing1
                      {
                        OFFSET -4.63474 -0.022105 -0.478947
                        CHANNELS 3 Zrotation Xrotation Yrotation
                        JOINT RightHandRing2
                        {
                          OFFSET -3.44238 0 0
                          CHANNELS 3 Zrotation Xrotation Yrotation
                          JOINT RightHandRing3
                          {
                            OFFSET -2.3881 0 0
                            CHANNELS 3 Zrotation Xrotation Yrotation
                            End Site
                            {
                              OFFSET -1.857 0 0
                            }
                          }
                        }
                      }
                    }
                    JOINT RightInHandPinky
                    {
                      OFFSET -3.16105 0.469368 -1.20179
                      CHANNELS 3 Zrotation Xrotation Yrotation
                      JOINT RightHandPinky1
                      {
                        OFFSET -4.14105 -0.022105 -1.09053
                        CHANNELS 3 Zrotation Xrotation Yrotation
                        JOINT RightHandPinky2
                        {
                          OFFSET -2.75653 0 0
                          CHANNELS 3 Zrotation Xrotation Yrotation
                          JOINT RightHandPinky3
                          {
                            OFFSET -1.74189 0 0
                            CHANNELS 3 Zrotation Xrotation Yrotation
                            End Site
                            {
                              OFFSET -1.645 0 0
                            }
                          }
                        }
                      }
                    }
                  }
                }
              }
            }
            JOINT LeftShoulder
            {
              OFFSET 3.25178 6.92057 -0.0384945
              CHANNELS 3 Zrotation Xrotation Yrotation
              JOINT LeftArm
              {
                OFFSET 12.8462 -0.0383255 -0.0637898
                CHANNELS 3 Zrotation Xrotation Yrotation
                JOINT LeftForeArm
                {
                  OFFSET 26.4888 -0.0608964 -0.0673835
                  CHANNELS 3 Zrotation Xrotation Yrotation
                  JOINT LeftHand
                  {
                    OFFSET 25.9932 -0.0402352 -0.0274148
                    CHANNELS 3 Zrotation Xrotation Yrotation
                    JOINT LeftHandThumb1
                    {
                      OFFSET 2.48905 0.190105 3.12053
                      CHANNELS 3 Zrotation Xrotation Yrotation
                      JOINT LeftHandThumb2
                      {
                        OFFSET 3.68274 0 0
                        CHANNELS 3 Zrotation Xrotation Yrotation
                        JOINT LeftHandThumb3
                        {
                          OFFSET 2.55832 0 0
                          CHANNELS 3 Zrotation Xrotation Yrotation
                          End Site
                          {
                            OFFSET 2.194 0 0
                          }
                        }
                      }
                    }
                    JOINT LeftInHandIndex
                    {
                      OFFSET 3.22368 0.508421 1.97842
                      CHANNELS 3 Zrotation Xrotation Yrotation
                      JOINT LeftHandIndex1
                      {
                        OFFSET 5.21684 -0.091368 0.999158
                        CHANNELS 3 Zrotation Xrotation Yrotation
                        JOINT LeftHandIndex2
                        {
                          OFFSET 3.61937 0 0
                          CHANNELS 3 Zrotation Xrotation Yrotation
                          JOINT LeftHandIndex3
                          {
                            OFFSET 2.0521 0 0
                            CHANNELS 3 Zrotation Xrotation Yrotation
                            End Site
                            {
                              OFFSET 1.805 0 0
                            }
                          }
                        }
                      }
                    }
                    JOINT LeftInHandMiddle
                    {
                      OFFSET 3.38211 0.517263 0.756737
                      CHANNELS 3 Zrotation Xrotation Yrotation
                      JOINT LeftHandMiddle1
                      {
                        OFFSET 5.17411 -0.084 0.313895
                        CHANNELS 3 Zrotation Xrotation Yrotation
                        JOINT LeftHandMiddle2
                        {
                          OFFSET 3.94947 0 0
                          CHANNELS 3 Zrotation Xrotation Yrotation
                          JOINT LeftHandMiddle3
                          {
                            OFFSET 2.47579 0 0
                            CHANNELS 3 Zrotation Xrotation Yrotation
                            End Site
                            {
                              OFFSET 1.975 0 0
                            }
                          }
                        }
                      }
                    }
                    JOINT LeftInHandRing
                    {
                      OFFSET 3.36516 0.537895 -0.128947
                      CHANNELS 3 Zrotation Xrotation Yrotation
                      JOINT LeftHandRing1
                      {
                        OFFSET 4.63474 -0.022105 -0.478947
                        CHANNELS 3 Zrotation Xrotation Yrotation
                        JOINT LeftHandRing2
                        {
                          OFFSET 3.44238 0 0
                          CHANNELS 3 Zrotation Xrotation Yrotation
                          JOINT LeftHandRing3
                          {
                            OFFSET 2.3881 0 0
                            CHANNELS 3 Zrotation Xrotation Yrotation
                            End Site
                            {
                              OFFSET 1.857 0 0
                            }
                          }
                        }
                      }
                    }
                    JOINT LeftInHandPinky
                    {
                      OFFSET 3.16105 0.469368 -1.20179
                      CHANNELS 3 Zrotation Xrotation Yrotation
                      JOINT LeftHandPinky1
                      {
                        OFFSET 4.14105 -0.022105 -1.09053
                        CHANNELS 3 Zrotation Xrotation Yrotation
                        JOINT LeftHandPinky2
                        {
                          OFFSET 2.75653 0 0
                          CHANNELS 3 Zrotation Xrotation Yrotation
                          JOINT LeftHandPinky3
                          {
                            OFFSET 1.74189 0 0
                            CHANNELS 3 Zrotation Xrotation Yrotation
                            End Site
                            {
                              OFFSET 1.645 0 0
                            }
                          }
                        }
                      }
                    }
                  }
                }
              }
            }
          }
        }
      }
    }
  }
}
MOTION
Frames: 2
Frame Time: 0.00833333
4.500000000000000000e+02 0.000000000000000000e+00 0.000000000000000000e+00 0.000000000000000000e+00 0.000000000000000000e+00 0.000000000000000000e+00 -1.642677401019106836e-02 3.973291349369722711e-04 1.192382666898048060e-01 -9.712969215113650967e-02 5.285312594434684458e-02 -1.230156033450713060e-01 1.591149096961565115e-03 -3.818297690960507224e-02 -2.000011312281531686e-02 2.626213354736625996e-03 -1.197381850611147804e-02 -5.294560872150340901e-03 -1.086088444619065924e-01 -2.181007698218502544e-02 -6.933956580525552083e-02 9.837240070126804237e-02 -5.553592705940628427e-02 -6.333512733245781623e-02 -3.295721828116171537e-02 3.082896451161582646e-02 -4.440266774661227184e-02 1.362248050948822176e-02 3.210387193887366541e-02 -5.698931386151244449e-02 9.280957628805469118e-04 5.158437325186472459e-03 -1.422731341692136386e-02 3.454272906433442612e-03 7.826213391607611189e-03 -2.216024924512861177e-02 1.125227449533686445e-03 4.268297187619714793e-03 1.374762450572724823e-03 -7.868005478970476960e-03 5.463737411344010697e-03 -3.023086616190348661e-03 3.084915243777500149e-02 3.916165106966000564e-02 8.805172662970229061e-03 -1.169677620739862228e-01 -1.634301591378845842e-01 1.893264086040667982e-01 4.186884047454942359e-01 -2.615648763577042568e-01 -2.751174461880407374e-01 -4.367275956325505359e-01 9.409932705369659089e-01 -6.225432077018097088e-01 -1.271640532221367803e-01 -3.546596690971466348e-01 1.495046152379609916e-01 0.000000000000000000e+00 0.000000000000000000e+00 0.000000000000000000e+00 -2.510681500848765317e-14 1.943860433629191590e-15 0.000000000000000000e+00 -7.051527015125514246e-15 -2.238106250849295421e-15 0.000000000000000000e+00 5.914582562557455392e-16 -4.597371541181272383e-16 1.794514620046611821e-15 0.000000000000000000e+00 0.000000000000000000e+00 0.000000000000000000e+00 0.000000000000000000e+00 1.349058008779373077e-15 -1.530811228510758934e-14 0.000000000000000000e+00 3.091819522033301413e-16 2.150315261594018758e-15 5.914582562557455392e-16 -4.597371541181272383e-16 1.794514620046611821e-15 0.000000000000000000e+00 -3.647773574354628807e-15 -4.446742067558550218e-15 0.000000000000000000e+00 -4.396667304054148874e-15 -1.937881929389861502e-14 0.000000000000000000e+00 1.536880710318561467e-15 2.717571558274587469e-15 5.914582562557455392e-16 -4.597371541181272383e-16 1.794514620046611821e-15 0.000000000000000000e+00 0.000000000000000000e+00 0.000000000000000000e+00 0.000000000000000000e+00 -4.407275011705176696e-15 -1.201473176530684635e-14 0.000000000000000000e+00 -4.732282462490439208e-16 -1.381854339267774544e-15 5.914582562557455392e-16 -4.597371541181272383e-16 1.794514620046611821e-15 0.000000000000000000e+00 0.000000000000000000e+00 0.000000000000000000e+00 0.000000000000000000e+00 -6.026943565130784679e-15 -4.308561957401792326e-15 0.000000000000000000e+00 6.049221156524752267e-17 -3.149737989274471360e-15 6.886734935856894668e-02 8.979595654705270491e-02 6.261207819380676387e-02 -5.495742580344340489e-01 -2.729010599830267725e-01 6.325578157980872307e-01 -4.304089340741850123e-01 1.625027717348514755e-01 -6.069155731805940812e-01 9.113323894051764129e-02 8.200867970620701053e-01 1.928809626652920051e-01 0.000000000000000000e+00 0.000000000000000000e+00 0.000000000000000000e+00 -1.837388774820139603e-15 -6.726370206861162978e-17 0.000000000000000000e+00 -2.823388749394924103e-15 2.447518807711151044e-15 0.000000000000000000e+00 -8.221763808363508657e-16 -1.911394530450194987e-16 -1.867092488174387011e-15 0.000000000000000000e+00 0.000000000000000000e+00 0.000000000000000000e+00 0.000000000000000000e+00 1.933862391381605266e-15 2.860664517573132730e-15 0.000000000000000000e+00 -2.583870678506621416e-15 5.071987013829783569e-16 -8.221763808363508657e-16 -1.911394530450194987e-16 -1.867092488174387011e-15 0.000000000000000000e+00 -6.588842011501647639e-15 -8.419240842025670718e-16 0.000000000000000000e+00 -2.062152389440380354e-16 4.049247357660666669e-15 0.000000000000000000e+00 -1.456809255249114125e-16 6.811023775732675960e-15 -8.221763808363508657e-16 -1.911394530450194987e-16 -1.867092488174387011e-15 0.000000000000000000e+00 0.000000000000000000e+00 0.000000000000000000e+00 0.000000000000000000e+00 -2.894035656451159806e-16 4.245781851256175597e-15 0.000000000000000000e+00 -1.698911398807175036e-16 2.142009535664189679e-15 -8.221763808363508657e-16 -1.911394530450194987e-16 -1.867092488174387011e-15 0.000000000000000000e+00 0.000000000000000000e+00 0.000000000000000000e+00 0.000000000000000000e+00 -7.228265306371355274e-16 7.551077434522473398e-15 0.000000000000000000e+00 -1.446556497136089413e-16 5.427445016597368764e-15
4.500000000000000000e+02 0.000000000000000000e+00 0.000000000000000000e+00 0.000000000000000000e+00 0.000000000000000000e+00 0.000000000000000000e+00 -1.251683393630812803e-02 4.441374653369908193e-02 1.750334614445354930e-01 -1.465323369461033198e-01 4.600877245508527141e-02 -2.133290080222855489e-01 1.563152979024258135e-02 -1.208743673891972577e-02 -3.659572092768761248e-02 4.765097283389573566e-04 -1.651245916226301916e-02 -6.972360934547943735e-03 -1.113119542106862092e-01 -4.356985480422466417e-02 -1.728416162015223301e-01 5.215632875159629395e-02 -4.195846767137299121e-02 -2.952322968225518790e-02 -2.230322783759326050e-02 2.883803922008790904e-02 -3.385615969201558051e-02 4.847879834848915076e-02 1.594954121033271763e-02 -9.205326322762051594e-02 9.295445665918788264e-03 9.633365234649936487e-04 -2.113513203946094238e-02 1.554817679093858582e-02 1.581738269666221712e-03 -3.250683810315623673e-02 2.989121867495793915e-03 4.426957358252664974e-03 5.266518854223057287e-04 -1.194842046324295307e-03 4.900937270769779169e-03 -2.081613382231410538e-03 6.153880622232037190e-02 6.139411492748469285e-02 1.322765765752641686e-03 -5.659435958346657747e-02 -9.636860187594514793e-02 1.091912574313264328e-01 2.105979286254476279e-01 -1.848252411137093487e-01 -1.430980791056321311e-01 -2.803423495261680998e-01 4.605210223996348273e-01 -4.483876421068505591e-01 2.892074356835989124e-01 -3.928834166063978062e-01 6.401588158559119446e-01 0.000000000000000000e+00 0.000000000000000000e+00 0.000000000000000000e+00 -2.198490065194670462e-14 1.643127968779802682e-15 0.000000000000000000e+00 1.017220400274510655e-14 -7.509287968013300314e-16 0.000000000000000000e+00 2.112981805267702849e-16 -1.115420256971044399e-17 6.983386507454470993e-16 0.000000000000000000e+00 0.000000000000000000e+00 0.000000000000000000e+00 0.000000000000000000e+00 2.731433636594790422e-15 -1.624548046546504117e-15 0.000000000000000000e+00 1.668952153485349629e-15 5.132625608606551308e-15 2.112981805267702849e-16 -1.115420256971044399e-17 6.983386507454470993e-16 0.000000000000000000e+00 -2.947298461073337528e-17 -2.423691335842517845e-16 0.000000000000000000e+00 -1.136538540058226209e-15 -2.921478059665830877e-15 0.000000000000000000e+00 8.806255126630631383e-17 6.886086710206947050e-15 2.112981805267702849e-16 -1.115420256971044399e-17 6.983386507454470993e-16 0.000000000000000000e+00 0.000000000000000000e+00 0.000000000000000000e+00 0.000000000000000000e+00 -2.253121525702268766e-15 -2.081285251443568727e-16 0.000000000000000000e+00 -3.359915196640593288e-15 2.729877988860081067e-15 2.112981805267702849e-16 -1.115420256971044399e-17 6.983386507454470993e-16 0.000000000000000000e+00 0.000000000000000000e+00 0.000000000000000000e+00 0.000000000000000000e+00 -2.724785169012280601e-15 1.702559119665798053e-15 0.000000000000000000e+00 -1.606632169636610476e-15 2.769288562025910711e-15 3.241131972639865744e-02 9.109691863277571966e-02 8.933912632384666264e-02 -3.323607274024040770e-01 -1.586870768595031456e-01 3.659484074305699441e-01 -2.310572322145640900e-01 5.841474946242571076e-02 -3.893236447350112983e-01 2.843804048063721529e-02 4.904423126074755057e-01 8.789606481770288748e-02 0.000000000000000000e+00 0.000000000000000000e+00 0.000000000000000000e+00 8.003610875573913608e-17 -2.686745869260383740e-17 0.000000000000000000e+00 -2.466656035067953716e-15 2.600876118869695719e-15 0.000000000000000000e+00 -8.821226270010966001e-16 1.155205731560465547e-15 -4.050729223959636033e-16 0.000000000000000000e+00 0.000000000000000000e+00 0.000000000000000000e+00 0.000000000000000000e+00 2.116535040277944174e-16 3.126717083899208687e-15 0.000000000000000000e+00 -1.672704611888649071e-15 2.362620466334791342e-15 -8.821226270010966001e-16 1.155205731560465547e-15 -4.050729223959636033e-16 0.000000000000000000e+00 -3.137836375679032126e-15 7.217079507336805002e-16 0.000000000000000000e+00 1.732880712344836521e-16 1.709690104818108358e-15 0.000000000000000000e+00 -7.162813074975799095e-16 8.501631694230566125e-15 -8.821226270010966001e-16 1.155205731560465547e-15 -4.050729223959636033e-16 0.000000000000000000e+00 0.000000000000000000e+00 0.000000000000000000e+00 0.000000000000000000e+00 6.950820262558416887e-16 2.735409545579964319e-15 0.000000000000000000e+00 1.112299201535732811e-15 1.598082065682319076e-15 -8.821226270010966001e-16 1.155205731560465547e-15 -4.050729223959636033e-16 0.000000000000000000e+00 0.000000000000000000e+00 0.000000000000000000e+00 0.000000000000000000e+00 -8.976950044346134151e-16 6.194509597143386973e-15 0.000000000000000000e+00 5.388090125606022208e-16 3.492036422295401917e-15
